Coordinates
version=1
nRows=4
nColumns=124
inDegrees=yes

Units are S.I. units (second, meters, Newtons, ...)
If the header above contains a line with 'inDegrees', this indicates whether rotational values are in degrees (yes) or radians (no).

endheader 
time	pelvis_tilt	pelvis_list	pelvis_rotation	pelvis_tx	pelvis_ty	pelvis_tz	hip_flexion_l	hip_adduction_l	hip_rotation_l	hip_flexion_r	hip_adduction_r	hip_rotation_r	knee_angle_l	knee_angle_r	ankle_angle_l	ankle_angle_r	subtalar_angle_l	subtalar_angle_r	mtp_angle_l	mtp_angle_r	lumbar_extension	lumbar_bending	lumbar_rotation	arm_flex_l	arm_add_l	arm_rot_l	arm_flex_r	arm_add_r	arm_rot_r	elbow_flex_l	elbow_flex_r	glut_med1_l/activation	glut_med2_l/activation	glut_med3_l/activation	glut_min1_l/activation	glut_min2_l/activation	glut_min3_l/activation	semimem_l/activation	semiten_l/activation	bifemlh_l/activation	bifemsh_l/activation	sar_l/activation	add_long_l/activation	add_brev_l/activation	add_mag1_l/activation	add_mag2_l/activation	add_mag3_l/activation	tfl_l/activation	pect_l/activation	grac_l/activation	glut_max1_l/activation	glut_max2_l/activation	glut_max3_l/activation	iliacus_l/activation	psoas_l/activation	quad_fem_l/activation	gem_l/activation	peri_l/activation	rect_fem_l/activation	vas_med_l/activation	vas_int_l/activation	vas_lat_l/activation	med_gas_l/activation	lat_gas_l/activation	soleus_l/activation	tib_post_l/activation	flex_dig_l/activation	flex_hal_l/activation	tib_ant_l/activation	per_brev_l/activation	per_long_l/activation	per_tert_l/activation	ext_dig_l/activation	ext_hal_l/activation	ercspn_l/activation	intobl_l/activation	extobl_l/activation	glut_med1_r/activation	glut_med2_r/activation	glut_med3_r/activation	glut_min1_r/activation	glut_min2_r/activation	glut_min3_r/activation	semimem_r/activation	semiten_r/activation	bifemlh_r/activation	bifemsh_r/activation	sar_r/activation	add_long_r/activation	add_brev_r/activation	add_mag1_r/activation	add_mag2_r/activation	add_mag3_r/activation	tfl_r/activation	pect_r/activation	grac_r/activation	glut_max1_r/activation	glut_max2_r/activation	glut_max3_r/activation	iliacus_r/activation	psoas_r/activation	quad_fem_r/activation	gem_r/activation	peri_r/activation	rect_fem_r/activation	vas_med_r/activation	vas_int_r/activation	vas_lat_r/activation	med_gas_r/activation	lat_gas_r/activation	soleus_r/activation	tib_post_r/activation	flex_dig_r/activation	flex_hal_r/activation	tib_ant_r/activation	per_brev_r/activation	per_long_r/activation	per_tert_r/activation	ext_dig_r/activation	ext_hal_r/activation	ercspn_r/activation	intobl_r/activation	extobl_r/activation	
          0.52480504	         -6.59659026	         -1.30263847	        -16.07528856	          0.68087081	          0.88953495	          0.02692866	         41.81113734	         -9.14364269	         -3.48804027	        -14.23323248	         -0.62955919	        -13.77259870	        -28.40348489	          0.09005231	          7.66304918	          9.60781368	        -11.61777638	          0.63843656	          0.27293331	         18.26549199	          1.58934738	          5.81607048	          3.11184975	          0.11487152	        -13.49712654	         18.69796932	         21.26054381	        -13.50304981	         18.70053183	         26.28817559	         60.31956357	          0.07326169	          0.07544760	          0.07884328	          0.05008711	          0.05012411	          0.05614835	          0.09408241	          0.16149510	          0.14109758	          0.24625083	          0.08661858	          0.05003148	          0.05002413	          0.05004032	          0.05014191	          0.14314336	          0.08645721	          0.05012479	          0.11122282	          0.08652511	          0.09333830	          0.10712045	          0.10209986	          0.25839518	          0.44096169	          0.09201967	          0.16068219	          0.05000738	          0.05000653	          0.05000591	          0.05000388	          0.08646905	          0.08646143	          0.06260881	          0.08645161	          0.06074608	          0.07589081	          0.39286598	          0.33834265	          0.29689883	          0.05633496	          0.64433035	          0.05004703	          0.05719210	          0.14945602	          0.16910336	          0.08615521	          0.41332756	          0.31303289	          0.16183651	          0.70157769	          0.62997426	          0.34769144	          0.38785506	          0.28435034	          0.56897294	          0.39045626	          0.05000603	          0.05000793	          0.05001461	          0.05003788	          0.05001964	          0.47485897	          0.05003484	          0.32084228	          0.05120831	          0.05033743	          0.05012994	          0.83625447	          0.97874771	          0.78019183	          0.48997268	          0.25694555	          0.05000082	          0.05001094	          0.05000969	          0.05000975	          0.05056727	          0.05056724	          0.05056834	          0.05056724	          0.05056811	          0.05056849	          0.05056950	          0.05056862	          0.05056836	          0.05056891	          0.05056916	          0.05056927	          0.05000078	          0.05000331	          0.05000345	
          0.56853880	         -6.90330595	         -1.11610388	        -16.56894221	          0.74839697	          0.88173400	          0.02281936	         39.55831388	         -8.98683229	         -3.94758021	        -14.00128384	         -2.85324880	        -19.19811249	        -27.93037881	         -7.39790040	          6.10651039	          8.03120522	        -12.40215991	          0.49932524	          0.24989597	         23.83808090	          1.85014333	          4.91225060	          4.30079784	         -3.65090908	        -13.48642053	         18.32762030	         22.60312827	        -13.53428834	         19.34871086	         21.75463415	         58.59000030	          0.18281746	          0.38488828	          0.76473761	          0.30682317	          0.23132791	          0.41618957	          0.05442347	          0.09341343	          0.08162806	          0.14243732	          0.08648418	          0.08733314	          0.16276381	          0.07137634	          0.05199102	          0.08290875	          0.05001736	          0.08662799	          0.06436044	          0.05007891	          0.05399531	          0.06196571	          0.08643662	          0.14945855	          0.25507086	          0.45007383	          0.48605901	          0.05000613	          0.14278793	          0.16217456	          0.14990678	          0.05001583	          0.05001347	          0.05000123	          0.05000613	          0.05000787	          0.05000700	          0.58844844	          0.40944339	          0.17195873	          0.75892420	          0.90914392	          0.44348598	          0.15681701	          0.08644779	          0.09781076	          0.37937368	          0.41595265	          0.39790692	          0.09362026	          0.50000843	          0.36458919	          0.20112262	          0.23221220	          0.22716034	          0.32909792	          0.25615588	          0.05001152	          0.05001096	          0.05001232	          0.05001261	          0.05000664	          0.61491768	          0.05048505	          0.18559834	          0.05016168	          0.05007000	          0.05004429	          0.48369941	          0.66582551	          0.49068620	          0.28349293	          0.40171518	          0.05000146	          0.05000206	          0.05000170	          0.05000165	          0.05056758	          0.05056756	          0.05056828	          0.05056735	          0.05056815	          0.05056856	          0.05056942	          0.05056852	          0.05056823	          0.05056884	          0.05056909	          0.05056925	          0.05587789	          0.05000100	          0.05000242	
          0.61227255	         -7.11743841	         -1.15416605	        -16.62696699	          0.81843123	          0.87787278	          0.01686121	         37.17034017	         -7.21809612	         -2.64472480	        -13.64031584	         -5.61246864	        -22.98552188	        -31.40196827	        -15.35133074	          6.31649284	          3.52773244	        -14.01528327	         -1.74447205	          0.17921750	         26.33663054	          2.24198751	          4.16526380	          5.10661474	         -7.78319890	        -13.51786607	         18.43585202	         21.74096742	        -13.66361022	         18.81072184	         18.60263041	         55.08903172	          0.55790681	          0.53752162	          0.44235326	          0.17748631	          0.17149678	          0.41264273	          0.05000406	          0.05405289	          0.05000683	          0.08239026	          0.05003319	          0.05051899	          0.09415851	          0.11073051	          0.09604749	          0.07438144	          0.14954469	          0.05014513	          0.05295428	          0.28521870	          0.20994253	          0.10193061	          0.05000721	          0.08645047	          0.14755807	          0.26032839	          0.28114189	          0.08645127	          0.42066633	          0.45693914	          0.40369491	          0.05000472	          0.05001354	          0.05000256	          0.37315165	          0.30356497	          0.20919397	          0.72964641	          0.23682523	          0.09946249	          0.43897448	          0.52922743	          0.50927294	          0.13610158	          0.05000244	          0.05657523	          0.36711038	          0.41195810	          0.58066500	          0.67166209	          0.47621921	          0.37607992	          0.15037081	          0.13433104	          0.13144219	          0.19035268	          0.14816580	          0.05000339	          0.05000937	          0.05001830	          0.05044907	          0.08648756	          0.57981985	          0.05001131	          0.10735788	          0.09834623	          0.12832946	          0.08728537	          0.27977508	          0.49124503	          0.28381901	          0.16399767	          0.23240276	          0.05000274	          0.05275772	          0.05661761	          0.05012856	          0.05056833	          0.05056830	          0.05056868	          0.05056746	          0.05056835	          0.05056860	          0.05056926	          0.05056857	          0.05056823	          0.05056866	          0.05056896	          0.05056902	          0.22901006	          0.17220751	          0.05000197	
          0.65600630	         -7.22314417	         -1.05082071	        -16.49450158	          0.88507056	          0.88377133	          0.00993307	         34.23711811	         -4.81648460	         -0.56910909	        -12.56610299	         -8.73951359	        -25.62239779	        -34.21841191	        -22.98779322	         11.45241217	         -0.27020609	        -14.36384825	         -5.57940014	          0.87911021	         18.82279773	          2.48492935	          3.60770784	          5.57855542	        -11.19930971	        -13.46543063	         18.84445595	         19.85345000	        -13.52759585	         18.64352160	         16.55739119	         48.85358421	          0.66147235	          0.53859615	          0.25588838	          0.50562436	          0.31858812	          0.23869864	          0.09706234	          0.11938328	          0.09776523	          0.06368995	          0.05002657	          0.08840679	          0.10258517	          0.11857615	          0.15370646	          0.14859598	          0.08649889	          0.05038973	          0.13198757	          0.30286572	          0.24493146	          0.11718786	          0.05000817	          0.05000812	          0.08535503	          0.15057969	          0.16261735	          0.05000511	          0.24338693	          0.46759669	          0.44322003	          0.05000728	          0.05001740	          0.05000306	          0.43161704	          0.31244854	          0.27496590	          0.42203315	          0.13698247	          0.05753077	          0.25391663	          0.30611641	          0.29482911	          0.09724404	          0.05000224	          0.05000296	          0.25841425	          0.31793233	          0.33586882	          0.38851543	          0.36355945	          0.21754593	          0.08699048	          0.07770622	          0.07603913	          0.11016107	          0.27587483	          0.05002270	          0.05001997	          0.05001673	          0.05001250	          0.05002912	          0.70937139	          0.05032054	          0.06211893	          0.05693561	          0.07425287	          0.05050259	          0.32745184	          0.48615798	          0.30662596	          0.09496922	          0.13446307	          0.16076357	          0.05000321	          0.05000282	          0.05000213	          0.05056880	          0.05056873	          0.05056858	          0.05056730	          0.05056803	          0.05056844	          0.05056955	          0.05056873	          0.05056851	          0.05056881	          0.05056915	          0.05056922	          0.17368705	          0.18316163	          0.05000426	
